<svg xmlns="http://www.w3.org/2000/svg" xmlns:ns1="http://sodipodi.sourceforge.net/DTD/sodipodi-0.dtd" xmlns:ns2="http://www.inkscape.org/namespaces/inkscape" id="Layer_1" data-name="Layer 1" viewBox="0 0 810.57 1148.95" version="1.1" ns1:docname="sample-logo.svg" ns2:version="1.3.2 (091e20e, 2023-11-25, custom)">
  <ns1:namedview id="namedview24" pagecolor="#505050" bordercolor="#ffffff" borderopacity="1" ns2:showpageshadow="0" ns2:pageopacity="0" ns2:pagecheckerboard="1" ns2:deskcolor="#505050" ns2:zoom="1" ns2:cx="-289.5" ns2:cy="524.5" ns2:window-width="3840" ns2:window-height="1511" ns2:window-x="-9" ns2:window-y="792" ns2:window-maximized="1" ns2:current-layer="Layer_1" />
  <defs id="defs21">
    <style id="style1">
      .cls-1 {
        fill: url(#linear-gradient-2);
      }

      .cls-2 {
        fill: #e6ecf5;
      }

      .cls-3 {
        fill: url(#linear-gradient-6);
      }

      .cls-4 {
        fill: url(#linear-gradient-5);
      }

      .cls-5 {
        fill: url(#linear-gradient-3);
      }

      .cls-6 {
        fill: url(#linear-gradient);
      }

      .cls-7 {
        fill: url(#linear-gradient-4);
      }
    </style>
    <linearGradient id="linear-gradient" x1="237.89" y1="1123.26" x2="237.89" y2="5.5" gradientUnits="userSpaceOnUse">
      <stop offset=".71" stop-color="#e15d25" id="stop1" />
      <stop offset=".78" stop-color="#e2672d" id="stop2" />
      <stop offset=".89" stop-color="#e27a3c" id="stop3" />
    </linearGradient>
    <linearGradient id="linear-gradient-2" x1="17.2" y1="934.61" x2="542.61" y2="330.2" gradientUnits="userSpaceOnUse">
      <stop offset=".13" stop-color="#e27135" id="stop4" />
      <stop offset=".29" stop-color="#e2672d" id="stop5" />
      <stop offset=".6" stop-color="#e14d19" id="stop6" />
      <stop offset=".89" stop-color="#8b2c10" id="stop7" />
    </linearGradient>
    <linearGradient id="linear-gradient-3" x1="571.3" y1="1148.95" x2="571.3" y2="327.37" gradientUnits="userSpaceOnUse">
      <stop offset="0" stop-color="#401008" id="stop8" />
      <stop offset=".48" stop-color="#401008" id="stop9" />
      <stop offset=".94" stop-color="#4e1509" id="stop10" />
    </linearGradient>
    <linearGradient id="linear-gradient-4" x1="643.18" y1="445.55" x2="643.18" y2="24.46" gradientUnits="userSpaceOnUse">
      <stop offset=".13" stop-color="#6e210d" id="stop11" />
      <stop offset=".36" stop-color="#e4bc6f" id="stop12" />
      <stop offset=".83" stop-color="#e5decd" id="stop13" />
      <stop offset=".93" stop-color="#e6e1d8" id="stop14" />
    </linearGradient>
    <linearGradient id="linear-gradient-5" x1="332.02" y1="726.39" x2="657.68" y2="726.39" gradientUnits="userSpaceOnUse">
      <stop offset=".13" stop-color="#401008" id="stop15" />
      <stop offset=".47" stop-color="#401008" id="stop16" />
      <stop offset=".81" stop-color="#401008" id="stop17" />
      <stop offset="1" stop-color="#401008" id="stop18" />
    </linearGradient>
    <linearGradient id="linear-gradient-6" x1="500.67" y1="667.59" x2="500.67" y2="405.07" gradientUnits="userSpaceOnUse">
      <stop offset=".13" stop-color="#401008" id="stop19" />
      <stop offset=".47" stop-color="#401008" id="stop20" />
      <stop offset=".93" stop-color="#4f160a" id="stop21" />
    </linearGradient>
  </defs>
  <path id="path22" style="fill:url(#linear-gradient-3)" class="cls-5" d="m 625.13086,327.36914 c 0,157.14388 0,314.28776 0,471.43164 8.36815,4.41897 16.47291,9.75829 22.57325,17.09621 4.45202,5.30301 7.56327,11.91523 7.90818,18.8968 0.4061,7.10199 -0.80812,14.44872 -4.44418,20.64176 -4.05293,7.0197 -10.66984,12.16228 -17.73919,15.90835 -9.82148,5.1783 -20.60583,8.2029 -31.41525,10.51938 -1.07697,0.20955 -2.40615,0.49517 -3.58433,0.71384 -12.23951,2.34662 -24.72512,3.73876 -37.09145,4.70218 -20.7182,1.55308 -41.50009,1.94863 -62.32288,1.74588 -13.93583,-0.15484 -27.80968,-0.6353 -41.7279,-1.40995 -20.7081,-1.1561 -41.45233,-2.98009 -62.11709,-5.40334 -12.34156,-1.46569 -24.80686,-3.14595 -37.0902,-5.08711 -8.61431,-1.34726 -17.20924,-2.84437 -25.76378,-4.51754 -1.94845,-0.0416 -3.89689,-0.0832 -5.84534,-0.12482 1.61498,1.30951 3.14925,2.73464 4.81495,3.97149 160.42821,91.98218 320.85652,183.96419 481.28466,275.94649 0,-235.97983 0,-471.95964 0,-707.93946 -62.47839,-40.25546 -124.95939,-80.50689 -187.43945,-120.75977 0,1.22266 0,2.44531 0,3.66797 z" />
  <polygon class="cls-6" points="475.79 272.11 475.79 654.71 332.02 453.87 332.02 1117.76 0 919.65 0 0 475.79 272.11" id="polygon21" />
  <path class="cls-1" d="M475.79,272.11v382.6l-143.77-200.84v663.89L0,919.65v-334.53c0-108.6,2.55-256.2,163.58-315.03,149.65-54.67,310.08,1.27,312.19,2.01,.01,.01,.02,.01,.02,.01Z" id="path21" />
  <polygon class="cls-7" points="810.57 225.44 810.57 445.55 627.13 327.37 525.55 327.37 525.55 405.07 475.79 429.59 475.79 24.46 810.57 225.44" id="polygon22" />
  <polygon class="cls-2" points="627.13 327.37 627.13 843.29 525.55 843.29 332.02 561.7 288.69 498.65 288.69 843.29 182.75 843.29 182.75 327.37 288.69 327.37 475.79 596.12 525.55 667.59 525.55 327.37 627.13 327.37" id="polygon23" />
  <path class="cls-4" d="M521.88,890.98c-103.41,1.61-189.86-16.41-189.86-16.41v-312.87l193.53,281.59h101.58v-45.68c14.84,7.89,29.71,20.08,30.5,37.43,1.6,35.31-32.33,54.34-135.75,55.94Z" id="path23" />
  <polygon class="cls-3" points="525.55 405.07 525.55 667.59 475.79 596.12 475.79 429.59 525.55 405.07" id="polygon24" />
</svg>